<mxfile host="drawio-plugin" modified="2021-05-19T14:22:34.264Z" agent="5.0 (Windows NT 6.2; Win64; x64) AppleWebKit/537.36 (KHTML, like Gecko) Chrome/87.0.4280.141 Safari/537.36" version="14.6.6" etag="F0BoM0-zFH_9090II-V0" type="embed"><diagram id="HpDcNdHfMB2CzxQulbNq" name="Page-1"><mxGraphModel dx="733" dy="431" grid="1" gridSize="10" guides="1" tooltips="1" connect="1" arrows="1" fold="1" page="1" pageScale="1" pageWidth="850" pageHeight="1100" math="0" shadow="0"><root><mxCell id="0"/><mxCell id="1" parent="0"/><mxCell id="2" value="«interface»&#10;Component" style="swimlane;fontStyle=1;align=center;verticalAlign=top;childLayout=stackLayout;horizontal=1;startSize=40;horizontalStack=0;resizeParent=1;resizeParentMax=0;resizeLast=0;collapsible=1;marginBottom=0;" vertex="1" parent="1"><mxGeometry x="170" y="70" width="190" height="94" as="geometry"/></mxCell><mxCell id="4" value="" style="line;strokeWidth=1;fillColor=none;align=left;verticalAlign=middle;spacingTop=-1;spacingLeft=3;spacingRight=3;rotatable=0;labelPosition=right;points=[];portConstraint=eastwest;" vertex="1" parent="2"><mxGeometry y="40" width="190" height="8" as="geometry"/></mxCell><mxCell id="5" value="+ accept()" style="text;strokeColor=none;fillColor=none;align=left;verticalAlign=top;spacingLeft=4;spacingRight=4;overflow=hidden;rotatable=0;points=[[0,0.5],[1,0.5]];portConstraint=eastwest;" vertex="1" parent="2"><mxGeometry y="48" width="190" height="46" as="geometry"/></mxCell><mxCell id="6" value="«interface»&#10;Visitor" style="swimlane;fontStyle=1;align=center;verticalAlign=top;childLayout=stackLayout;horizontal=1;startSize=40;horizontalStack=0;resizeParent=1;resizeParentMax=0;resizeLast=0;collapsible=1;marginBottom=0;" vertex="1" parent="1"><mxGeometry x="440" y="70" width="190" height="94" as="geometry"/></mxCell><mxCell id="8" value="" style="line;strokeWidth=1;fillColor=none;align=left;verticalAlign=middle;spacingTop=-1;spacingLeft=3;spacingRight=3;rotatable=0;labelPosition=right;points=[];portConstraint=eastwest;" vertex="1" parent="6"><mxGeometry y="40" width="190" height="8" as="geometry"/></mxCell><mxCell id="9" value="+ visit_concrete_component_a()&#10;+ visit_concrete_component_b()" style="text;strokeColor=none;fillColor=none;align=left;verticalAlign=top;spacingLeft=4;spacingRight=4;overflow=hidden;rotatable=0;points=[[0,0.5],[1,0.5]];portConstraint=eastwest;" vertex="1" parent="6"><mxGeometry y="48" width="190" height="46" as="geometry"/></mxCell><mxCell id="10" value="ConcreteComponentA" style="swimlane;fontStyle=1;align=center;verticalAlign=top;childLayout=stackLayout;horizontal=1;startSize=26;horizontalStack=0;resizeParent=1;resizeParentMax=0;resizeLast=0;collapsible=1;marginBottom=0;" vertex="1" parent="1"><mxGeometry x="170" y="220" width="190" height="160" as="geometry"/></mxCell><mxCell id="11" value="" style="line;strokeWidth=1;fillColor=none;align=left;verticalAlign=middle;spacingTop=-1;spacingLeft=3;spacingRight=3;rotatable=0;labelPosition=right;points=[];portConstraint=eastwest;" vertex="1" parent="10"><mxGeometry y="26" width="190" height="8" as="geometry"/></mxCell><mxCell id="12" value="+ accept()&#10;+ exclusive_method_a" style="text;strokeColor=none;fillColor=none;align=left;verticalAlign=top;spacingLeft=4;spacingRight=4;overflow=hidden;rotatable=0;points=[[0,0.5],[1,0.5]];portConstraint=eastwest;" vertex="1" parent="10"><mxGeometry y="34" width="190" height="46" as="geometry"/></mxCell><mxCell id="13" value="ConcreteComponentB" style="swimlane;fontStyle=1;align=center;verticalAlign=top;childLayout=stackLayout;horizontal=1;startSize=26;horizontalStack=0;resizeParent=1;resizeParentMax=0;resizeLast=0;collapsible=1;marginBottom=0;" vertex="1" parent="10"><mxGeometry y="80" width="190" height="80" as="geometry"/></mxCell><mxCell id="14" value="" style="line;strokeWidth=1;fillColor=none;align=left;verticalAlign=middle;spacingTop=-1;spacingLeft=3;spacingRight=3;rotatable=0;labelPosition=right;points=[];portConstraint=eastwest;" vertex="1" parent="13"><mxGeometry y="26" width="190" height="8" as="geometry"/></mxCell><mxCell id="15" value="+ accept()&#10;+ special_method_b" style="text;strokeColor=none;fillColor=none;align=left;verticalAlign=top;spacingLeft=4;spacingRight=4;overflow=hidden;rotatable=0;points=[[0,0.5],[1,0.5]];portConstraint=eastwest;" vertex="1" parent="13"><mxGeometry y="34" width="190" height="46" as="geometry"/></mxCell><mxCell id="16" value="ConcreteVisitor1" style="swimlane;fontStyle=1;align=center;verticalAlign=top;childLayout=stackLayout;horizontal=1;startSize=26;horizontalStack=0;resizeParent=1;resizeParentMax=0;resizeLast=0;collapsible=1;marginBottom=0;" vertex="1" parent="1"><mxGeometry x="440" y="220" width="190" height="80" as="geometry"/></mxCell><mxCell id="17" value="" style="line;strokeWidth=1;fillColor=none;align=left;verticalAlign=middle;spacingTop=-1;spacingLeft=3;spacingRight=3;rotatable=0;labelPosition=right;points=[];portConstraint=eastwest;" vertex="1" parent="16"><mxGeometry y="26" width="190" height="8" as="geometry"/></mxCell><mxCell id="18" value="+ visit_concrete_component_a()&#10;+ visit_concrete_component_b()" style="text;strokeColor=none;fillColor=none;align=left;verticalAlign=top;spacingLeft=4;spacingRight=4;overflow=hidden;rotatable=0;points=[[0,0.5],[1,0.5]];portConstraint=eastwest;" vertex="1" parent="16"><mxGeometry y="34" width="190" height="46" as="geometry"/></mxCell><mxCell id="19" value="ConcreteVisitor2" style="swimlane;fontStyle=1;align=center;verticalAlign=top;childLayout=stackLayout;horizontal=1;startSize=26;horizontalStack=0;resizeParent=1;resizeParentMax=0;resizeLast=0;collapsible=1;marginBottom=0;" vertex="1" parent="1"><mxGeometry x="440" y="300" width="190" height="80" as="geometry"/></mxCell><mxCell id="20" value="" style="line;strokeWidth=1;fillColor=none;align=left;verticalAlign=middle;spacingTop=-1;spacingLeft=3;spacingRight=3;rotatable=0;labelPosition=right;points=[];portConstraint=eastwest;" vertex="1" parent="19"><mxGeometry y="26" width="190" height="8" as="geometry"/></mxCell><mxCell id="21" value="+ visit_concrete_component_a()&#10;+ visit_concrete_component_b()" style="text;strokeColor=none;fillColor=none;align=left;verticalAlign=top;spacingLeft=4;spacingRight=4;overflow=hidden;rotatable=0;points=[[0,0.5],[1,0.5]];portConstraint=eastwest;" vertex="1" parent="19"><mxGeometry y="34" width="190" height="46" as="geometry"/></mxCell><mxCell id="23" style="edgeStyle=orthogonalEdgeStyle;rounded=0;orthogonalLoop=1;jettySize=auto;html=1;exitX=0;exitY=0.5;exitDx=0;exitDy=0;entryX=0.5;entryY=0;entryDx=0;entryDy=0;" edge="1" parent="1" source="22" target="2"><mxGeometry relative="1" as="geometry"/></mxCell><mxCell id="24" style="edgeStyle=orthogonalEdgeStyle;rounded=0;orthogonalLoop=1;jettySize=auto;html=1;exitX=1;exitY=0.5;exitDx=0;exitDy=0;" edge="1" parent="1" source="22" target="6"><mxGeometry relative="1" as="geometry"/></mxCell><mxCell id="22" value="«interface»&lt;br&gt;&lt;b&gt;Client&lt;/b&gt;" style="html=1;" vertex="1" parent="1"><mxGeometry x="340" width="110" height="50" as="geometry"/></mxCell><mxCell id="25" value="Extends" style="endArrow=block;endSize=16;endFill=0;html=1;exitX=0.5;exitY=0;exitDx=0;exitDy=0;entryX=0.5;entryY=1;entryDx=0;entryDy=0;entryPerimeter=0;" edge="1" parent="1" source="10" target="5"><mxGeometry width="160" relative="1" as="geometry"><mxPoint x="280" y="190" as="sourcePoint"/><mxPoint x="440" y="190" as="targetPoint"/></mxGeometry></mxCell><mxCell id="26" value="Extends" style="endArrow=block;endSize=16;endFill=0;html=1;exitX=0.5;exitY=0;exitDx=0;exitDy=0;entryX=0.495;entryY=1;entryDx=0;entryDy=0;entryPerimeter=0;" edge="1" parent="1" source="16" target="9"><mxGeometry width="160" relative="1" as="geometry"><mxPoint x="470" y="200" as="sourcePoint"/><mxPoint x="630" y="200" as="targetPoint"/></mxGeometry></mxCell></root></mxGraphModel></diagram></mxfile>